<svg xmlns="http://www.w3.org/2000/svg" xmlns:dc="http://purl.org/dc/elements/1.1/" xmlns:cc="http://creativecommons.org/ns#" xmlns:rdf="http://www.w3.org/1999/02/22-rdf-syntax-ns#" xmlns:svg="http://www.w3.org/2000/svg" xmlns:xlink="http://www.w3.org/1999/xlink" xmlns:sodipodi="http://sodipodi.sourceforge.net/DTD/sodipodi-0.dtd" xmlns:inkscape="http://www.inkscape.org/namespaces/inkscape" viewBox="0 0 298.609406 298.609406" width="298.609406" height="298.609406">
  <path d="M22.281866,27.275865 V52.784065 L33.941378,64.443577 H38.406866 V113.397837 L2.5,149.304703 38.406866,185.211569 V253.086148 L51.003878,265.68316 H85.064923 L101.617166,248.421869 149.304703,296.109406 190.960759,254.45335 H276.354061 L285.082713,228.267395 H279.431021 L291.205557,192.943788 279.808372,177.402172 H268.011936 L296.109406,149.304703 245.343475,98.538772 289.338256,52.659391 V27.275865 L277.678745,15.616353 H181.326795 L171.873925,25.069222 149.304703,2.5 133.678339,18.126364 131.168328,15.616353 H33.941378Z" fill="#ffffff" stroke="#444444" stroke-width="0.05"/>
  <g id="diamond">
    <path id="diamond_outline" d="M289.632828,149.304703 149.304703,8.976577 8.976577,149.304703 149.304703,289.632828 194.751313,244.186218 H172.875178 L189.830252,193.320996 H184.178561 L186.062458,187.669304 H206.785326 L212.437017,193.320996 H218.088709 L223.7404,187.669304 H240.695474 L245.981851,192.955681Z" fill="#000000"/>
    <path id="diamond_face" d="M275.466811,149.304703 149.304703,23.142595 23.142595,149.304703 149.304703,275.466811 180.585296,244.186218 H172.875178 L189.830252,193.320996 H184.178561 L186.062458,187.669304 H206.785326 L212.437017,193.320996 H218.088709 L223.7404,187.669304 H237.10221Z" fill="#009933"/>
    <path id="diamond_bevel_0" d="M149.304703,23.142595 V14.664077 L14.664077,149.304703 H23.142595Z" fill="#87ff3c" stroke="#000000" stroke-width="0.216"/>
    <path id="diamond_bevel_1" d="M275.466811,149.304703 H283.945329 L149.304703,14.664077 V23.142595Z" fill="#3edc3c" stroke="#000000" stroke-width="0.216"/>
    <path id="diamond_bevel_2" d="M237.10221,187.669304 H240.695474 L243.138101,190.111931 283.945329,149.304703 H275.466811Z M149.304703,275.466811 V283.945329 L189.063814,244.186218 H180.585296Z" fill="#0d493c" stroke="#000000" stroke-width="0.216"/>
    <path id="diamond_bevel_3" d="M23.142595,149.304703 H14.664077 L149.304703,283.945329 V275.466811Z" fill="#26973c" stroke="#000000" stroke-width="0.216"/>
  </g>
  <g id="letter_v">
    <path id="v_outline" d="M26.789228,29.142875 35.808388,20.123715 H129.301318 L138.320478,29.142875 V50.917055 L129.301318,59.936215 H124.132978 V118.997042 L183.193805,59.936215 174.174645,50.917055 V29.142875 L183.193805,20.123715 H275.811734 L284.830895,29.142875 V50.847502 L83.14231,261.175798 H52.870888 L41.976728,250.281638 V59.936215 H35.808388 L26.789228,50.917055Z" fill="#000000"/>
    <path id="v_lit_bevels" d="M32.476728,31.498715 38.164228,25.811215 H126.945478 L132.632978,31.498715 V48.561215 L126.945478,54.248715 H118.445478 V132.727882 L196.924645,54.248715 H185.549645 L179.862145,48.561215 V31.498715 L185.549645,25.811215 H273.455895 L279.143395,31.498715 V48.561215 L80.716311,255.488298 H55.226728 L48.601728,248.863298 V54.248715 H38.164228 L32.476728,48.561215Z" fill="#ffffff" stroke="#000000" stroke-width="0.216"/>
    <path id="v_dim_bevel_0" d="M132.632978,31.498715 V48.561215 L126.945478,54.248715 H118.445478 V132.727882 L108.007978,154.540382 V48.561215 H124.589638 L126.945478,46.205375 V33.854555 L124.589638,31.498715Z" fill="#7f7f7f" stroke="#000000" stroke-width="0.216"/>
    <path id="v_dim_bevel_1" d="M196.924645,54.248715 H185.549645 V46.205375 L187.905484,48.561215 H202.612145Z" fill="#7f7f7f" stroke="#000000" stroke-width="0.216"/>
    <path id="v_dim_bevel_2" d="M279.143395,31.498715 V48.561215 L80.716311,255.488298 H55.226728 V247.444959 L57.582568,249.800798 H75.028811 L273.455895,42.873715 V33.854555 L271.100055,31.498715Z" fill="#7f7f7f" stroke="#000000" stroke-width="0.216"/>
    <path id="v_dim_bevel_3" d="M48.601728,54.248715 H38.164228 V46.205375 L40.520068,48.561215 H55.226728Z" fill="#7f7f7f" stroke="#000000" stroke-width="0.216"/>
    <path id="v_face" d="M38.164228,33.854555 40.520068,31.498715 H124.589638 L126.945478,33.854555 V46.205375 L124.589638,48.561215 H108.007978 V154.540382 L202.612145,59.936215 V48.561215 H187.905484 L185.549645,46.205375 V33.854555 L187.905484,31.498715 H271.100055 L273.455895,33.854555 V42.873715 L75.028811,249.800798 H57.582568 L55.226728,247.444959 V48.561215 H40.520068 L38.164228,46.205375Z" fill="#cccccc" stroke="#000000" stroke-width="0.216"/>
  </g>
  <g id="letters_im">
    <path id="im_outline" d="M175.71296,179.227576 182.418734,174.198245 187.627991,158.570474 182.512675,150.897502 H166.269602 L159.563828,155.926832 154.354571,171.554603 159.469886,179.227576Z M205.256825,232.847027 H199.605134 L207.11685,210.311878 H214.907467 L201.720187,249.873718 H236.317255 L241.992819,232.847027 H236.341128 L243.852844,210.311878 H251.643461 L238.456181,249.873718 H273.053249 L278.728813,232.847027 H273.077122 L286.11204,193.742272 277.487697,181.981804 H255.294709 L249.643017,187.633496 H248.703005 L243.051314,181.981804 H221.384561 L215.732869,187.633496 H214.792857 L209.141166,181.981804 H181.96314 L176.287576,199.008496 H181.939267 L164.984193,249.873718 H199.581261Z M162.86914,232.847027 179.824214,181.981804 H145.227146 L139.551582,199.008496 H145.203273 L128.248199,249.873718 H162.845268 L168.520831,232.847027Z" fill="#000000"/>
    <path id="im_face" d="M136.139184,244.186218 153.094258,193.320996 H147.442567 L149.326464,187.669304 H171.933229 L154.978155,238.534527 H160.629847 L158.745949,244.186218Z M160.629847,170.71423 164.397641,159.410847 168.165435,156.585002 H179.468818 L181.352715,159.410847 177.584921,170.71423 173.817126,173.540076 H162.513744Z M172.875178,244.186218 189.830252,193.320996 H184.178561 L186.062458,187.669304 H206.785326 L212.437017,193.320996 H218.088709 L223.7404,187.669304 H240.695474 L246.347166,193.320996 H251.998857 L257.650548,187.669304 H274.605623 L279.78634,194.733918 265.186137,238.534527 H270.837828 L268.953931,244.186218 H246.347166 L259.534446,204.624378 H239.753526 L228.450143,238.534527 H234.101834 L232.217937,244.186218 H209.611172 L222.798452,204.624378 H203.017532 L191.714149,238.534527 H197.36584 L195.481943,244.186218Z" fill="#cccccc"/>
  </g>
</svg>
